<?xml version="1.0" encoding="UTF-8"?>
<svg id="Layer_1" xmlns="http://www.w3.org/2000/svg" version="1.1" viewBox="0 0 1247.07 463.96">
  <!-- Generator: Adobe Illustrator 30.1.0, SVG Export Plug-In . SVG Version: 2.1.1 Build 136)  -->
  <defs>
    <style>
      .st0 {
        fill: #ff1413;
      }
    </style>
  </defs>
  <g>
    <path class="st0" d="M688.26,151.76h54.32l-53.05,119.79c-10.94,24.71-35.42,40.64-62.44,40.64h-7.02c-27.08,0-51.6-16-62.51-40.79l-52.64-119.64h53.86l44.08,102.52c3.57,8.3,11.73,13.67,20.76,13.67h0c9.04,0,17.22-5.39,20.78-13.71l43.87-102.49Z"/>
    <path class="st0" d="M764.66,312.19v-160.43h50.42v160.43h-50.42Z"/>
    <path class="st0" d="M980.4,151.76c25.67,0,46.79,7.26,63.37,21.77,16.58,14.52,24.87,34,24.87,58.44s-8.29,43.74-24.87,58.33c-16.58,14.59-37.7,21.89-63.37,21.89h-131.78v-160.43h131.78ZM980.4,268.19c10.69-.15,19.52-3.67,26.47-10.54,6.95-6.88,10.43-15.43,10.43-25.67s-3.48-19.02-10.43-25.9c-6.95-6.88-15.78-10.31-26.47-10.31h-81.59v72.42h81.59Z"/>
    <path class="st0" d="M1095.3,312.19v-160.43h50.42v160.43h-50.42Z"/>
  </g>
  <g>
    <path class="st0" d="M429.68,126.15h0c-33.08-33.08-86.71-33.08-119.78,0l-31.98,31.98,23.51,23.51,26.93,26.93c27.86,27.86,27.86,73.03,0,100.89h0c-27.86,27.86-73.03,27.86-100.89,0h0c-27.86-27.86-27.86-73.03,0-100.89l26.93-26.93,23.51-23.51h0s-31.98-31.98-31.98-31.98c-33.08-33.08-86.71-33.08-119.78,0h0c-33.08,33.08-33.08,86.71,0,119.78l31.98,31.98,59.89,59.89c6.2,6.2,13.13,11.24,20.5,15.12,24.59,12.92,54.19,12.92,78.78,0,7.38-3.88,14.3-8.92,20.5-15.12h0s59.89-59.89,59.89-59.89l31.98-31.98c33.08-33.08,33.08-86.71,0-119.78Z"/>
    <polygon class="st0" points="277.91 158.13 277.91 158.13 277.91 158.13 277.91 158.13"/>
  </g>
</svg>